<svg width="64" height="64" viewBox="0 0 64 64" fill="none" xmlns="http://www.w3.org/2000/svg">
  <rect width="64" height="64" rx="14" fill="#111827"/>
  <path d="M14 40C14 29.5066 22.5066 21 33 21C41.839 21 49.2749 27.019 51.416 35.184C55.2583 36.3429 58 39.8847 58 44C58 49.2467 53.7467 53.5 48.5 53.5H21.5C14.5964 53.5 9 47.9036 9 41C9 34.3744 14.1573 28.9629 20.6798 28.543" stroke="#F9FAFB" stroke-width="4" stroke-linecap="round" stroke-linejoin="round"/>
  <path d="M36 7C32.8333 10.6667 31.25 14.0833 31.25 17.25C31.25 21.6683 34.8317 25.25 39.25 25.25C42.4167 25.25 45.8333 23.6667 49.5 20.5C46.3333 20.5 43.7917 19.5417 41.875 17.625C39.9583 15.7083 39 13.1667 39 10C38.0556 9.05556 37.0556 8.05556 36 7Z" fill="#F9FAFB"/>
</svg>
