<svg width="40" height="40" viewBox="0 0 40 40" fill="none" xmlns="http://www.w3.org/2000/svg" aria-hidden="true">
  <path d="M8 24.5C8 17.5964 13.5964 12 20.5 12C26.299 12 31.1814 15.9473 32.5957 21.3008C35.0972 22.082 37 24.4011 37 27.25C37 30.7018 34.2018 33.5 30.75 33.5H12.75C8.47715 33.5 5 30.0228 5 25.75C5 21.6503 8.188 18.2989 12.2201 18.0383" stroke="currentColor" stroke-width="2.4" stroke-linecap="round" stroke-linejoin="round"/>
  <path d="M22.5 4.5C20.3333 7 19.25 9.33333 19.25 11.5C19.25 14.3995 21.6005 16.75 24.5 16.75C26.6667 16.75 29 15.6667 31.5 13.5C29.3333 13.5 27.5833 12.8333 26.25 11.5C24.9167 10.1667 24.25 8.41667 24.25 6.25C23.7045 5.70445 23.1212 5.12112 22.5 4.5Z" fill="currentColor"/>
</svg>
